<svg xmlns="http://www.w3.org/2000/svg" width="1200" height="630"><defs><linearGradient id="bg" x1="0%" x2="100%" y1="0%" y2="100%"><stop offset="0%" style="stop-color:#09090b"/><stop offset="50%" style="stop-color:#0f0f12"/><stop offset="100%" style="stop-color:#18181b"/></linearGradient><linearGradient id="accent" x1="0%" x2="100%" y1="0%" y2="0%"><stop offset="0%" style="stop-color:#5a7a9e"/><stop offset="100%" style="stop-color:#7a96b5"/></linearGradient><filter id="glow" width="200%" height="200%" x="-50%" y="-50%"><feGaussianBlur result="coloredBlur" stdDeviation="20"/><feMerge><feMergeNode in="coloredBlur"/><feMergeNode in="SourceGraphic"/></feMerge></filter></defs><rect width="1200" height="630" fill="url(#bg)"/><circle cx="100" cy="530" r="200" fill="#5a7a9e" filter="url(#glow)" opacity=".08"/><circle cx="1100" cy="100" r="250" fill="#7a96b5" filter="url(#glow)" opacity=".06"/><circle cx="600" cy="600" r="300" fill="#5a7a9e" filter="url(#glow)" opacity=".04"/><pattern id="grid" width="40" height="40" patternUnits="userSpaceOnUse"><path fill="none" stroke="#fff" stroke-width=".5" d="M 40 0 L 0 0 0 40" opacity=".04"/></pattern><rect width="1200" height="630" fill="url(#grid)"/><g transform="translate(600, 250)"><image width="100" height="100" x="-50" y="-130" href="logo-2.png" preserveAspectRatio="xMidYMid meet"/><text y="30" fill="#fafafa" font-family="Arial, sans-serif" font-size="72" font-weight="bold" text-anchor="middle">PortlifyAi</text><text y="90" fill="#a1a1aa" font-family="Arial, sans-serif" font-size="28" text-anchor="middle">AI-Powered Resume to Portfolio Builder</text></g><g transform="translate(600, 420)"><rect width="160" height="44" x="-380" y="0" fill="#fff" fill-opacity=".06" rx="22"/><text x="-300" y="28" fill="#fafafa" font-family="Arial, sans-serif" font-size="16" text-anchor="middle">✨ AI Parsing</text><rect width="200" height="44" x="-100" y="0" fill="#fff" fill-opacity=".06" rx="22"/><text x="0" y="28" fill="#fafafa" font-family="Arial, sans-serif" font-size="16" text-anchor="middle">⚡ Instant Portfolio</text><rect width="160" height="44" x="220" y="0" fill="#fff" fill-opacity=".06" rx="22"/><text x="300" y="28" fill="#fafafa" font-family="Arial, sans-serif" font-size="16" text-anchor="middle">📊 Analytics</text></g><text x="600" y="550" fill="url(#accent)" font-family="Arial, sans-serif" font-size="22" text-anchor="middle">portlifyai.app</text><text x="600" y="590" fill="#71717a" font-family="Arial, sans-serif" font-size="16" text-anchor="middle">Transform your resume into a stunning portfolio in seconds</text></svg>